<?xml version="1.0" encoding="UTF-8" standalone="no"?>
<!-- Created with Inkscape (http://www.inkscape.org/) -->

<svg
   version="1.1"
   id="svg2"
   xml:space="preserve"
   width="660.29041"
   height="169.50533"
   viewBox="0 0 660.2904 169.50532"
   sodipodi:docname="Logo horizontal.svg"
   inkscape:version="1.1.2 (0a00cf5339, 2022-02-04)"
   xmlns:inkscape="http://www.inkscape.org/namespaces/inkscape"
   xmlns:sodipodi="http://sodipodi.sourceforge.net/DTD/sodipodi-0.dtd"
   xmlns="http://www.w3.org/2000/svg"
   xmlns:svg="http://www.w3.org/2000/svg"><defs
     id="defs6"><clipPath
       clipPathUnits="userSpaceOnUse"
       id="clipPath16"><path
         d="M 0,841.89 H 595.276 V 0 H 0 Z"
         id="path14" /></clipPath></defs><sodipodi:namedview
     id="namedview4"
     pagecolor="#ffffff"
     bordercolor="#666666"
     borderopacity="1.0"
     inkscape:pageshadow="2"
     inkscape:pageopacity="0.0"
     inkscape:pagecheckerboard="true"
     showgrid="false"
     fit-margin-top="0"
     fit-margin-left="0"
     fit-margin-right="0"
     fit-margin-bottom="0"
     inkscape:showpageshadow="false"
     inkscape:zoom="0.90985238"
     inkscape:cx="142.88032"
     inkscape:cy="113.20518"
     inkscape:window-width="1920"
     inkscape:window-height="1131"
     inkscape:window-x="0"
     inkscape:window-y="0"
     inkscape:window-maximized="1"
     inkscape:current-layer="g8" /><g
     id="g8"
     inkscape:groupmode="layer"
     inkscape:label="Logo horizontal"
     transform="matrix(1.3333333,0,0,-1.3333333,-59.720932,685.64065)"><g
       id="g18"
       transform="translate(508.6475,442.2618)"><path
         d="m 0,0 7.882,-4.223 c 4.542,-2.429 7.381,-4.183 8.674,-5.293 1.938,-1.705 2.865,-3.666 2.865,-5.947 0,-2.596 -0.964,-4.494 -2.79,-5.846 -1.883,-1.41 -2.633,-2.089 -6.75,-2.121 -8.564,-0.072 -15.068,5.141 -18.748,9.067 v -8.006 c 3.843,-2.635 10.721,-6.254 19.467,-6.254 5.936,0 10.917,1.461 14.833,4.463 3.932,2.996 5.928,6.771 5.928,11.256 0,3.322 -1.11,6.261 -3.34,8.746 -2.215,2.396 -5.944,4.949 -11.06,7.658 L 8.855,7.795 c -2.977,1.566 -5.089,3.039 -6.4,4.379 -1.221,1.224 -1.846,2.705 -1.846,4.498 0,1.969 0.781,3.39 2.295,4.418 1.65,1.125 3.593,1.976 5.806,1.693 9.107,-1.162 18.751,-8.074 18.751,-8.074 v 13.537 c 0,0 -2.492,-3.348 -6.774,-2.668 -0.136,0.02 -1.531,0.326 -4.658,1.254 -3.023,0.922 -5.691,1.414 -7.994,1.414 -5.393,0 -9.843,-1.41 -13.222,-4.314 -3.353,-2.887 -5.022,-6.508 -5.022,-10.786 0,-3.328 1.458,-6.357 4.258,-9.039 C -4.439,2.695 -2.44,1.326 0,0"
         style="fill:#293d9b;fill-opacity:1;fill-rule:nonzero;stroke:none"
         id="path20" /></g><g
       id="g22"
       transform="translate(213.793,435.9767)"><path
         d="m 0,0 v 33.422 h -14.712 c 5.83,0 8.977,-6.572 8.977,-12.725 L -5.735,0 c 0,-5.01 -0.621,-8.529 -1.737,-10.713 -1.966,-3.832 -5.825,-5.889 -12.043,-5.889 -5.612,0 -9.156,1.971 -11.029,5.721 -1.028,2.104 -1.587,5.143 -1.587,9.217 V 33.41 h -19.277 c 5.827,0 8.976,-6.574 8.976,-12.715 V -1.084 c 0,-5.02 0.857,-9.176 2.657,-12.393 3.362,-6.054 9.663,-8.939 18.479,-8.939 8.918,0 15.279,2.932 18.64,9.064 C -0.849,-10.049 0,-5.564 0,0"
         style="fill:#293d9b;fill-opacity:1;fill-rule:nonzero;stroke:none"
         id="path24" /></g><g
       id="g26"
       transform="translate(287.8467,456.6622)"><path
         d="M 0,0 V -41.979 H 10.299 V 12.725 H -8.975 C -3.142,12.725 0,6.15 0,0"
         style="fill:#293d9b;fill-opacity:1;fill-rule:nonzero;stroke:none"
         id="path28" /></g><g
       id="g30"
       transform="translate(335.0957,445.7599)"><path
         d="m 0,0 -8.103,4.297 c -2.974,1.566 -5.085,3.039 -6.4,4.379 -1.223,1.224 -1.846,2.705 -1.846,4.498 0,1.969 0.782,3.39 2.295,4.418 1.655,1.125 3.593,1.976 5.808,1.693 9.107,-1.162 18.754,-8.074 18.754,-8.074 v 13.537 c 0,0 -2.494,-3.348 -6.779,-2.668 -0.136,0.02 -1.529,0.326 -4.656,1.254 -3.02,0.922 -5.696,1.414 -7.991,1.414 -5.4,0 -9.848,-1.41 -13.225,-4.314 -3.355,-2.887 -5.026,-6.508 -5.026,-10.786 0,-3.328 1.46,-6.357 4.26,-9.039 1.513,-1.412 3.513,-2.781 5.951,-4.107 l 7.885,-4.223 c 4.542,-2.429 7.38,-4.183 8.676,-5.293 1.933,-1.705 2.865,-3.666 2.865,-5.947 0,-2.596 -0.968,-4.494 -2.793,-5.846 -1.88,-1.41 -2.635,-2.089 -6.756,-2.121 -8.558,-0.072 -15.062,5.141 -18.739,9.067 v -8.006 c 3.838,-2.635 10.717,-6.254 19.464,-6.254 5.936,0 10.919,1.461 14.828,4.463 3.937,2.996 5.931,6.771 5.931,11.256 0,3.322 -1.108,6.261 -3.338,8.746 C 8.853,-5.26 5.122,-2.707 0,0"
         style="fill:#293d9b;fill-opacity:1;fill-rule:nonzero;stroke:none"
         id="path32" /></g><g
       id="g34"
       transform="translate(230.1445,456.6622)"><path
         d="M 0,0 V -41.979 H 5.735 L 5.738,-1.5 38.393,-41.979 H 42.16 V 12.725 H 27.451 C 33.283,12.725 36.425,6.15 36.425,0 L 36.428,-23.361 7.553,12.725 H -8.972 C -3.139,12.725 0,6.15 0,0"
         style="fill:#293d9b;fill-opacity:1;fill-rule:nonzero;stroke:none"
         id="path36" /></g><g
       id="g38"
       transform="translate(454.7061,459.8009)"><path
         d="m 0,0 c 3.11,3.768 6.829,5.592 11.216,5.592 4.222,0 7.896,-1.754 11.065,-5.381 3.091,-3.541 4.755,-9.451 4.755,-17.994 0,-8.442 -1.652,-14.332 -4.719,-17.928 -3.115,-3.646 -6.795,-5.41 -11.101,-5.41 -4.42,0 -8.13,1.81 -11.216,5.549 -3.04,3.707 -4.653,9.562 -4.653,17.789 C -4.653,-9.531 -3.032,-3.68 0,0 m 11.216,-46.24 c 7.203,0.002 13.406,2.371 18.528,7.113 5.735,5.33 8.562,12.486 8.562,21.344 0,8.717 -2.73,15.803 -8.281,21.133 -5.097,4.91 -11.395,7.357 -18.809,7.357 -7.404,0 -13.686,-2.436 -18.782,-7.316 -5.574,-5.358 -8.325,-12.457 -8.325,-21.174 0,-8.307 2.577,-15.194 7.79,-20.569 5.126,-5.261 11.594,-7.888 19.317,-7.888"
         style="fill:#293d9b;fill-opacity:1;fill-rule:nonzero;stroke:none"
         id="path40" /></g><g
       id="g42"
       transform="translate(121.1387,425.2755)"><path
         d="m 0,0 v 25.572 c 0,3.959 0.124,24.006 15.729,29.53 3.842,1.439 10.686,1.32 11.165,7.443 0.235,2.639 1.201,12.004 1.201,12.004 1.079,9.724 11.278,12.844 17.644,14.406 H 25.452 c 0,0 -21.126,-0.242 -22.807,-14.406 0,0 -0.963,-9.365 -1.204,-12.004 C 0.961,56.422 -5.88,56.541 -9.721,55.102 -25.209,49.578 -25.446,29.891 -25.446,25.572 V 0 c 0,-7.082 -5.644,-12.725 -12.725,-12.725 -6.963,0 -12.725,5.643 -12.725,12.725 v 44.418 h -25.45 L -76.348,0 c 0,-21.125 17.169,-38.174 38.177,-38.174 C -17.043,-38.174 0,-21.125 0,0"
         style="fill:#293d9b;fill-opacity:1;fill-rule:nonzero;stroke:none"
         id="path44" /></g><g
       id="g46"
       transform="translate(361.3604,456.6622)"><path
         d="M 0,0 V -41.979 H 10.304 V 12.725 H -8.977 C -3.148,12.725 0,6.15 0,0"
         style="fill:#293d9b;fill-opacity:1;fill-rule:nonzero;stroke:none"
         id="path48" /></g><g
       id="g50"
       transform="translate(423.5381,456.6622)"><path
         d="m 0,0 v -23.361 l -28.867,36.086 h -16.525 c 5.83,0 8.972,-6.575 8.972,-12.725 v -41.979 h 5.733 V -1.5 L 1.975,-41.979 H 5.738 V 12.725 H -8.964 C -3.137,12.725 0,6.15 0,0"
         style="fill:#293d9b;fill-opacity:1;fill-rule:nonzero;stroke:none"
         id="path52" /></g></g></svg>
